<?xml version="1.0" encoding="utf-8"?>
<svg xmlns="http://www.w3.org/2000/svg" xmlns:xlink="http://www.w3.org/1999/xlink" xml:space="preserve" width="750" height="875" viewBox="0 0 750 875"><defs><radialGradient id="pattern-mask" cx="50%" cy="50%" r="50%" fx="50%" fy="50%" gradientUnits="userSpaceOnUse"><stop offset="0%" stop-color="#fed20b"/><stop offset="100%" stop-color="#fe7900"/></radialGradient>
<mask id="qrmask"><g fill="#ffffff"><g transform="scale(31.25)" fill="#fff"><path d="M22.7,0H1.3C0.6,0,0,0.6,0,1.3v25.3C0,27.4,0.6,28,1.3,28h21.3c0.7,0,1.3-0.6,1.3-1.3V1.3C24,0.6,23.4,0,22.7,0 z M23,22c0,0.6-0.5,1-1,1H2c-0.6,0-1-0.5-1-1V2c0-0.6,0.5-1,1-1h20c0.6,0,1,0.5,1,1V22z"/></g>
<g>
<g transform="translate(291,75) scale(4.12)"><rect width="6" height="6"/></g>
<g transform="translate(315,75) scale(4.12)"><rect width="6" height="6"/></g>
<g transform="translate(363,75) scale(4.12)"><rect width="6" height="6"/></g>
<g transform="translate(387,75) scale(4.12)"><rect width="6" height="6"/></g>
<g transform="translate(459,75) scale(4.12)"><rect width="6" height="6"/></g>
<g transform="translate(387,99) scale(4.12)"><rect width="6" height="6"/></g>
<g transform="translate(411,99) scale(4.12)"><rect width="6" height="6"/></g>
<g transform="translate(435,99) scale(4.12)"><rect width="6" height="6"/></g>
<g transform="translate(459,99) scale(4.12)"><rect width="6" height="6"/></g>
<g transform="translate(267,123) scale(4.12)"><rect width="6" height="6"/></g>
<g transform="translate(315,123) scale(4.12)"><rect width="6" height="6"/></g>
<g transform="translate(339,123) scale(4.12)"><rect width="6" height="6"/></g>
<g transform="translate(435,123) scale(4.12)"><rect width="6" height="6"/></g>
<g transform="translate(459,123) scale(4.12)"><rect width="6" height="6"/></g>
<g transform="translate(267,147) scale(4.12)"><rect width="6" height="6"/></g>
<g transform="translate(291,147) scale(4.12)"><rect width="6" height="6"/></g>
<g transform="translate(315,147) scale(4.12)"><rect width="6" height="6"/></g>
<g transform="translate(339,147) scale(4.12)"><rect width="6" height="6"/></g>
<g transform="translate(387,147) scale(4.12)"><rect width="6" height="6"/></g>
<g transform="translate(411,147) scale(4.12)"><rect width="6" height="6"/></g>
<g transform="translate(435,147) scale(4.12)"><rect width="6" height="6"/></g>
<g transform="translate(459,147) scale(4.12)"><rect width="6" height="6"/></g>
<g transform="translate(267,171) scale(4.12)"><rect width="6" height="6"/></g>
<g transform="translate(291,171) scale(4.12)"><rect width="6" height="6"/></g>
<g transform="translate(315,171) scale(4.12)"><rect width="6" height="6"/></g>
<g transform="translate(363,171) scale(4.12)"><rect width="6" height="6"/></g>
<g transform="translate(411,171) scale(4.12)"><rect width="6" height="6"/></g>
<g transform="translate(459,171) scale(4.12)"><rect width="6" height="6"/></g>
<g transform="translate(267,195) scale(4.12)"><rect width="6" height="6"/></g>
<g transform="translate(291,195) scale(4.12)"><rect width="6" height="6"/></g>
<g transform="translate(363,195) scale(4.12)"><rect width="6" height="6"/></g>
<g transform="translate(435,195) scale(4.12)"><rect width="6" height="6"/></g>
<g transform="translate(459,195) scale(4.12)"><rect width="6" height="6"/></g>
<g transform="translate(267,219) scale(4.12)"><rect width="6" height="6"/></g>
<g transform="translate(315,219) scale(4.12)"><rect width="6" height="6"/></g>
<g transform="translate(363,219) scale(4.12)"><rect width="6" height="6"/></g>
<g transform="translate(411,219) scale(4.12)"><rect width="6" height="6"/></g>
<g transform="translate(459,219) scale(4.12)"><rect width="6" height="6"/></g>
<g transform="translate(267,243) scale(4.12)"><rect width="6" height="6"/></g>
<g transform="translate(315,243) scale(4.12)"><rect width="6" height="6"/></g>
<g transform="translate(339,243) scale(4.12)"><rect width="6" height="6"/></g>
<g transform="translate(75,267) scale(4.12)"><rect width="6" height="6"/></g>
<g transform="translate(123,267) scale(4.12)"><rect width="6" height="6"/></g>
<g transform="translate(147,267) scale(4.12)"><rect width="6" height="6"/></g>
<g transform="translate(171,267) scale(4.12)"><rect width="6" height="6"/></g>
<g transform="translate(195,267) scale(4.12)"><rect width="6" height="6"/></g>
<g transform="translate(219,267) scale(4.12)"><rect width="6" height="6"/></g>
<g transform="translate(291,267) scale(4.12)"><rect width="6" height="6"/></g>
<g transform="translate(387,267) scale(4.12)"><rect width="6" height="6"/></g>
<g transform="translate(411,267) scale(4.12)"><rect width="6" height="6"/></g>
<g transform="translate(435,267) scale(4.12)"><rect width="6" height="6"/></g>
<g transform="translate(459,267) scale(4.12)"><rect width="6" height="6"/></g>
<g transform="translate(507,267) scale(4.12)"><rect width="6" height="6"/></g>
<g transform="translate(531,267) scale(4.12)"><rect width="6" height="6"/></g>
<g transform="translate(555,267) scale(4.12)"><rect width="6" height="6"/></g>
<g transform="translate(579,267) scale(4.12)"><rect width="6" height="6"/></g>
<g transform="translate(603,267) scale(4.12)"><rect width="6" height="6"/></g>
<g transform="translate(75,291) scale(4.12)"><rect width="6" height="6"/></g>
<g transform="translate(243,291) scale(4.12)"><rect width="6" height="6"/></g>
<g transform="translate(267,291) scale(4.12)"><rect width="6" height="6"/></g>
<g transform="translate(291,291) scale(4.12)"><rect width="6" height="6"/></g>
<g transform="translate(315,291) scale(4.12)"><rect width="6" height="6"/></g>
<g transform="translate(339,291) scale(4.12)"><rect width="6" height="6"/></g>
<g transform="translate(363,291) scale(4.12)"><rect width="6" height="6"/></g>
<g transform="translate(387,291) scale(4.12)"><rect width="6" height="6"/></g>
<g transform="translate(411,291) scale(4.12)"><rect width="6" height="6"/></g>
<g transform="translate(459,291) scale(4.12)"><rect width="6" height="6"/></g>
<g transform="translate(531,291) scale(4.12)"><rect width="6" height="6"/></g>
<g transform="translate(627,291) scale(4.12)"><rect width="6" height="6"/></g>
<g transform="translate(171,315) scale(4.12)"><rect width="6" height="6"/></g>
<g transform="translate(219,315) scale(4.12)"><rect width="6" height="6"/></g>
<g transform="translate(339,315) scale(4.12)"><rect width="6" height="6"/></g>
<g transform="translate(363,315) scale(4.12)"><rect width="6" height="6"/></g>
<g transform="translate(435,315) scale(4.12)"><rect width="6" height="6"/></g>
<g transform="translate(459,315) scale(4.12)"><rect width="6" height="6"/></g>
<g transform="translate(555,315) scale(4.12)"><rect width="6" height="6"/></g>
<g transform="translate(579,315) scale(4.12)"><rect width="6" height="6"/></g>
<g transform="translate(627,315) scale(4.12)"><rect width="6" height="6"/></g>
<g transform="translate(651,315) scale(4.12)"><rect width="6" height="6"/></g>
<g transform="translate(99,339) scale(4.12)"><rect width="6" height="6"/></g>
<g transform="translate(147,339) scale(4.12)"><rect width="6" height="6"/></g>
<g transform="translate(171,339) scale(4.12)"><rect width="6" height="6"/></g>
<g transform="translate(243,339) scale(4.12)"><rect width="6" height="6"/></g>
<g transform="translate(315,339) scale(4.12)"><rect width="6" height="6"/></g>
<g transform="translate(339,339) scale(4.12)"><rect width="6" height="6"/></g>
<g transform="translate(363,339) scale(4.12)"><rect width="6" height="6"/></g>
<g transform="translate(411,339) scale(4.12)"><rect width="6" height="6"/></g>
<g transform="translate(459,339) scale(4.12)"><rect width="6" height="6"/></g>
<g transform="translate(483,339) scale(4.12)"><rect width="6" height="6"/></g>
<g transform="translate(507,339) scale(4.12)"><rect width="6" height="6"/></g>
<g transform="translate(651,339) scale(4.12)"><rect width="6" height="6"/></g>
<g transform="translate(99,363) scale(4.12)"><rect width="6" height="6"/></g>
<g transform="translate(123,363) scale(4.12)"><rect width="6" height="6"/></g>
<g transform="translate(195,363) scale(4.12)"><rect width="6" height="6"/></g>
<g transform="translate(219,363) scale(4.12)"><rect width="6" height="6"/></g>
<g transform="translate(267,363) scale(4.12)"><rect width="6" height="6"/></g>
<g transform="translate(291,363) scale(4.12)"><rect width="6" height="6"/></g>
<g transform="translate(315,363) scale(4.12)"><rect width="6" height="6"/></g>
<g transform="translate(387,363) scale(4.12)"><rect width="6" height="6"/></g>
<g transform="translate(411,363) scale(4.12)"><rect width="6" height="6"/></g>
<g transform="translate(483,363) scale(4.12)"><rect width="6" height="6"/></g>
<g transform="translate(507,363) scale(4.12)"><rect width="6" height="6"/></g>
<g transform="translate(555,363) scale(4.12)"><rect width="6" height="6"/></g>
<g transform="translate(603,363) scale(4.12)"><rect width="6" height="6"/></g>
<g transform="translate(627,363) scale(4.12)"><rect width="6" height="6"/></g>
<g transform="translate(651,363) scale(4.12)"><rect width="6" height="6"/></g>
<g transform="translate(75,387) scale(4.12)"><rect width="6" height="6"/></g>
<g transform="translate(123,387) scale(4.12)"><rect width="6" height="6"/></g>
<g transform="translate(147,387) scale(4.12)"><rect width="6" height="6"/></g>
<g transform="translate(195,387) scale(4.12)"><rect width="6" height="6"/></g>
<g transform="translate(291,387) scale(4.12)"><rect width="6" height="6"/></g>
<g transform="translate(315,387) scale(4.12)"><rect width="6" height="6"/></g>
<g transform="translate(339,387) scale(4.12)"><rect width="6" height="6"/></g>
<g transform="translate(363,387) scale(4.12)"><rect width="6" height="6"/></g>
<g transform="translate(411,387) scale(4.12)"><rect width="6" height="6"/></g>
<g transform="translate(483,387) scale(4.12)"><rect width="6" height="6"/></g>
<g transform="translate(531,387) scale(4.12)"><rect width="6" height="6"/></g>
<g transform="translate(579,387) scale(4.12)"><rect width="6" height="6"/></g>
<g transform="translate(627,387) scale(4.12)"><rect width="6" height="6"/></g>
<g transform="translate(75,411) scale(4.12)"><rect width="6" height="6"/></g>
<g transform="translate(123,411) scale(4.12)"><rect width="6" height="6"/></g>
<g transform="translate(171,411) scale(4.12)"><rect width="6" height="6"/></g>
<g transform="translate(219,411) scale(4.12)"><rect width="6" height="6"/></g>
<g transform="translate(243,411) scale(4.12)"><rect width="6" height="6"/></g>
<g transform="translate(267,411) scale(4.12)"><rect width="6" height="6"/></g>
<g transform="translate(291,411) scale(4.12)"><rect width="6" height="6"/></g>
<g transform="translate(315,411) scale(4.12)"><rect width="6" height="6"/></g>
<g transform="translate(363,411) scale(4.12)"><rect width="6" height="6"/></g>
<g transform="translate(387,411) scale(4.12)"><rect width="6" height="6"/></g>
<g transform="translate(435,411) scale(4.12)"><rect width="6" height="6"/></g>
<g transform="translate(459,411) scale(4.12)"><rect width="6" height="6"/></g>
<g transform="translate(483,411) scale(4.12)"><rect width="6" height="6"/></g>
<g transform="translate(507,411) scale(4.12)"><rect width="6" height="6"/></g>
<g transform="translate(531,411) scale(4.12)"><rect width="6" height="6"/></g>
<g transform="translate(555,411) scale(4.12)"><rect width="6" height="6"/></g>
<g transform="translate(579,411) scale(4.12)"><rect width="6" height="6"/></g>
<g transform="translate(627,411) scale(4.12)"><rect width="6" height="6"/></g>
<g transform="translate(651,411) scale(4.12)"><rect width="6" height="6"/></g>
<g transform="translate(75,435) scale(4.12)"><rect width="6" height="6"/></g>
<g transform="translate(339,435) scale(4.12)"><rect width="6" height="6"/></g>
<g transform="translate(363,435) scale(4.12)"><rect width="6" height="6"/></g>
<g transform="translate(411,435) scale(4.12)"><rect width="6" height="6"/></g>
<g transform="translate(435,435) scale(4.12)"><rect width="6" height="6"/></g>
<g transform="translate(507,435) scale(4.12)"><rect width="6" height="6"/></g>
<g transform="translate(531,435) scale(4.12)"><rect width="6" height="6"/></g>
<g transform="translate(555,435) scale(4.12)"><rect width="6" height="6"/></g>
<g transform="translate(651,435) scale(4.12)"><rect width="6" height="6"/></g>
<g transform="translate(75,459) scale(4.12)"><rect width="6" height="6"/></g>
<g transform="translate(171,459) scale(4.12)"><rect width="6" height="6"/></g>
<g transform="translate(219,459) scale(4.12)"><rect width="6" height="6"/></g>
<g transform="translate(267,459) scale(4.12)"><rect width="6" height="6"/></g>
<g transform="translate(291,459) scale(4.12)"><rect width="6" height="6"/></g>
<g transform="translate(315,459) scale(4.12)"><rect width="6" height="6"/></g>
<g transform="translate(339,459) scale(4.12)"><rect width="6" height="6"/></g>
<g transform="translate(363,459) scale(4.12)"><rect width="6" height="6"/></g>
<g transform="translate(387,459) scale(4.12)"><rect width="6" height="6"/></g>
<g transform="translate(411,459) scale(4.12)"><rect width="6" height="6"/></g>
<g transform="translate(459,459) scale(4.12)"><rect width="6" height="6"/></g>
<g transform="translate(483,459) scale(4.12)"><rect width="6" height="6"/></g>
<g transform="translate(507,459) scale(4.12)"><rect width="6" height="6"/></g>
<g transform="translate(531,459) scale(4.12)"><rect width="6" height="6"/></g>
<g transform="translate(555,459) scale(4.12)"><rect width="6" height="6"/></g>
<g transform="translate(603,459) scale(4.12)"><rect width="6" height="6"/></g>
<g transform="translate(267,483) scale(4.12)"><rect width="6" height="6"/></g>
<g transform="translate(291,483) scale(4.12)"><rect width="6" height="6"/></g>
<g transform="translate(411,483) scale(4.12)"><rect width="6" height="6"/></g>
<g transform="translate(459,483) scale(4.12)"><rect width="6" height="6"/></g>
<g transform="translate(555,483) scale(4.12)"><rect width="6" height="6"/></g>
<g transform="translate(579,483) scale(4.12)"><rect width="6" height="6"/></g>
<g transform="translate(339,507) scale(4.12)"><rect width="6" height="6"/></g>
<g transform="translate(363,507) scale(4.12)"><rect width="6" height="6"/></g>
<g transform="translate(459,507) scale(4.12)"><rect width="6" height="6"/></g>
<g transform="translate(507,507) scale(4.12)"><rect width="6" height="6"/></g>
<g transform="translate(555,507) scale(4.12)"><rect width="6" height="6"/></g>
<g transform="translate(603,507) scale(4.12)"><rect width="6" height="6"/></g>
<g transform="translate(627,507) scale(4.12)"><rect width="6" height="6"/></g>
<g transform="translate(651,507) scale(4.12)"><rect width="6" height="6"/></g>
<g transform="translate(267,531) scale(4.12)"><rect width="6" height="6"/></g>
<g transform="translate(291,531) scale(4.12)"><rect width="6" height="6"/></g>
<g transform="translate(363,531) scale(4.12)"><rect width="6" height="6"/></g>
<g transform="translate(459,531) scale(4.12)"><rect width="6" height="6"/></g>
<g transform="translate(555,531) scale(4.12)"><rect width="6" height="6"/></g>
<g transform="translate(579,531) scale(4.12)"><rect width="6" height="6"/></g>
<g transform="translate(627,531) scale(4.12)"><rect width="6" height="6"/></g>
<g transform="translate(267,555) scale(4.12)"><rect width="6" height="6"/></g>
<g transform="translate(387,555) scale(4.12)"><rect width="6" height="6"/></g>
<g transform="translate(411,555) scale(4.12)"><rect width="6" height="6"/></g>
<g transform="translate(435,555) scale(4.12)"><rect width="6" height="6"/></g>
<g transform="translate(459,555) scale(4.12)"><rect width="6" height="6"/></g>
<g transform="translate(483,555) scale(4.12)"><rect width="6" height="6"/></g>
<g transform="translate(507,555) scale(4.12)"><rect width="6" height="6"/></g>
<g transform="translate(531,555) scale(4.12)"><rect width="6" height="6"/></g>
<g transform="translate(555,555) scale(4.12)"><rect width="6" height="6"/></g>
<g transform="translate(603,555) scale(4.12)"><rect width="6" height="6"/></g>
<g transform="translate(627,555) scale(4.12)"><rect width="6" height="6"/></g>
<g transform="translate(651,555) scale(4.12)"><rect width="6" height="6"/></g>
<g transform="translate(267,579) scale(4.12)"><rect width="6" height="6"/></g>
<g transform="translate(291,579) scale(4.12)"><rect width="6" height="6"/></g>
<g transform="translate(363,579) scale(4.12)"><rect width="6" height="6"/></g>
<g transform="translate(435,579) scale(4.12)"><rect width="6" height="6"/></g>
<g transform="translate(507,579) scale(4.12)"><rect width="6" height="6"/></g>
<g transform="translate(555,579) scale(4.12)"><rect width="6" height="6"/></g>
<g transform="translate(579,579) scale(4.12)"><rect width="6" height="6"/></g>
<g transform="translate(603,579) scale(4.12)"><rect width="6" height="6"/></g>
<g transform="translate(627,579) scale(4.12)"><rect width="6" height="6"/></g>
<g transform="translate(651,579) scale(4.12)"><rect width="6" height="6"/></g>
<g transform="translate(267,603) scale(4.12)"><rect width="6" height="6"/></g>
<g transform="translate(291,603) scale(4.12)"><rect width="6" height="6"/></g>
<g transform="translate(315,603) scale(4.12)"><rect width="6" height="6"/></g>
<g transform="translate(363,603) scale(4.12)"><rect width="6" height="6"/></g>
<g transform="translate(411,603) scale(4.12)"><rect width="6" height="6"/></g>
<g transform="translate(459,603) scale(4.12)"><rect width="6" height="6"/></g>
<g transform="translate(579,603) scale(4.12)"><rect width="6" height="6"/></g>
<g transform="translate(603,603) scale(4.12)"><rect width="6" height="6"/></g>
<g transform="translate(651,603) scale(4.12)"><rect width="6" height="6"/></g>
<g transform="translate(291,627) scale(4.12)"><rect width="6" height="6"/></g>
<g transform="translate(315,627) scale(4.12)"><rect width="6" height="6"/></g>
<g transform="translate(363,627) scale(4.12)"><rect width="6" height="6"/></g>
<g transform="translate(435,627) scale(4.12)"><rect width="6" height="6"/></g>
<g transform="translate(459,627) scale(4.12)"><rect width="6" height="6"/></g>
<g transform="translate(483,627) scale(4.12)"><rect width="6" height="6"/></g>
<g transform="translate(531,627) scale(4.12)"><rect width="6" height="6"/></g>
<g transform="translate(555,627) scale(4.12)"><rect width="6" height="6"/></g>
<g transform="translate(579,627) scale(4.12)"><rect width="6" height="6"/></g>
<g transform="translate(651,627) scale(4.12)"><rect width="6" height="6"/></g>
<g transform="translate(267,651) scale(4.12)"><rect width="6" height="6"/></g>
<g transform="translate(291,651) scale(4.12)"><rect width="6" height="6"/></g>
<g transform="translate(531,651) scale(4.12)"><rect width="6" height="6"/></g>
<g transform="translate(555,651) scale(4.12)"><rect width="6" height="6"/></g>
<g transform="translate(579,651) scale(4.12)"><rect width="6" height="6"/></g>
<g transform="translate(603,651) scale(4.12)"><rect width="6" height="6"/></g>
<g transform="translate(627,651) scale(4.12)"><rect width="6" height="6"/></g>
<g transform="translate(651,651) scale(4.12)"><rect width="6" height="6"/></g>
<g transform="translate(75,75)"><g transform="scale(12)"><path d="M0,0v14h14V0H0z M12,12H2V2h10V12z"/></g></g>
<g transform="translate(507,75)"><g transform="scale(12)"><path d="M0,0v14h14V0H0z M12,12H2V2h10V12z"/></g></g>
<g transform="translate(75,507)"><g transform="scale(12)"><path d="M0,0v14h14V0H0z M12,12H2V2h10V12z"/></g></g>
<g transform="translate(123,123)"><g transform="scale(12)"><path d="M6,6L6,6C4.1,5.4,1.9,5.4,0,6l0,0l0,0c0.6-1.9,0.6-4.1,0-6l0,0l0,0c1.9,0.6,4.1,0.6,6,0l0,0l0,0C5.4,1.9,5.4,4.1,6,6L6,6z"/></g></g>
<g transform="translate(555,123)"><g transform="scale(12)"><path d="M6,6L6,6C4.1,5.4,1.9,5.4,0,6l0,0l0,0c0.6-1.9,0.6-4.1,0-6l0,0l0,0c1.9,0.6,4.1,0.6,6,0l0,0l0,0C5.4,1.9,5.4,4.1,6,6L6,6z"/></g></g>
<g transform="translate(123,555)"><g transform="scale(12)"><path d="M6,6L6,6C4.1,5.4,1.9,5.4,0,6l0,0l0,0c0.6-1.9,0.6-4.1,0-6l0,0l0,0c1.9,0.6,4.1,0.6,6,0l0,0l0,0C5.4,1.9,5.4,4.1,6,6L6,6z"/></g></g>
</g></g></mask></defs><rect width="694.375" height="694.375" fill="#444444" x="31.25" y="31.25"/><rect x="0" y="0" width="750" height="875" mask="url(#qrmask)" fill="url(#pattern-mask)"/><g transform="translate(75,757.81528322052) scale(0.54720342002138)"><path fill="#FFFFFF" d="M62.3046875,95.5078125q0,4.1015625-0.9765625,7.5439453125t-2.685546875,6.2744140625t-3.9794921875,4.98046875t-4.8828125,3.61328125t-5.3955078125,2.2216796875t-5.46875,0.7568359375q-3.22265625-0.09765625-6.298828125-0.78125q-1.318359375-0.29296875-2.7587890625-0.7568359375t-2.8564453125-1.1474609375t-2.7587890625-1.5869140625t-2.4658203125-2.1240234375q0.09765625,1.513671875,0.1953125,3.0029296875t0.244140625,2.9052734375l-16.40625,0q0-17.578125-0.48828125-35.595703125t-1.611328125-35.498046875l18.505859375-1.07421875q-0.390625,6.982421875-0.634765625,14.0625t-0.390625,14.208984375q1.123046875-1.318359375,2.44140625-2.34375t2.7587890625-1.806640625t2.880859375-1.2939453125t2.7587890625-0.8544921875q3.125-0.78125,6.34765625-0.87890625q5.615234375,0,10.05859375,1.806640625t7.51953125,5.17578125t4.7119140625,8.2275390625t1.6357421875,10.9619140625z M21.19140625,87.59765625q0,5.029296875,0.0732421875,9.9853515625t0.2197265625,9.8388671875q1.85546875,0.244140625,3.4912109375,0.390625t3.22265625,0.2197265625t3.1494140625,0.1220703125t3.271484375,0.048828125q3.515625,0,8.203125-0.29296875q0.5859375-4.39453125,0.927734375-8.7158203125t0.341796875-8.7646484375q0-2.197265625-0.0732421875-4.3212890625t-0.3173828125-4.3701171875q-2.63671875-0.244140625-4.8828125-0.390625t-4.296875-0.146484375q-3.466796875,0-6.6162109375,0.4150390625t-6.7138671875,1.2939453125l0,4.6875z M87.59765625,68.9453125q-1.07421875,10.888671875-1.4404296875,21.484375t-0.3662109375,21.19140625l0,3.7353515625t0.09765625,3.7841796875l-15.087890625,0q0-3.02734375,0.048828125-6.005859375t0.048828125-5.908203125q0-9.716796875-0.4638671875-19.23828125t-1.4404296875-19.04296875l18.603515625,0z M87.59765625,53.125q0,1.708984375-0.830078125,3.1982421875t-2.294921875,2.587890625t-3.41796875,1.7578125t-4.150390625,0.6591796875t-4.1015625-0.6591796875t-3.3203125-1.7578125t-2.24609375-2.587890625t-0.830078125-3.1982421875q0-1.66015625,0.830078125-3.1494140625t2.24609375-2.587890625t3.3203125-1.7333984375t4.1015625-0.634765625t4.150390625,0.634765625t3.41796875,1.7333984375t2.294921875,2.587890625t0.830078125,3.1494140625z M142.578125,82.71484375q-4.736328125-0.244140625-9.4970703125-0.439453125t-9.4970703125-0.341796875q-0.5859375,9.716796875-1.025390625,19.384765625t-0.68359375,19.482421875l-14.2578125,1.416015625q0.29296875-17.87109375,0.29296875-35.400390625l0-5.17578125l-3.515625,0q-2.9296875,0-5.859375,0.048828125t-5.859375,0.048828125l0-12.40234375q1.26953125,0,2.5634765625,0.048828125t2.6611328125,0.048828125l9.912109375,0q0-4.541015625-0.048828125-8.9599609375t-0.146484375-8.8623046875l18.505859375,0q-0.48828125,4.39453125-0.8544921875,8.7158203125t-0.6591796875,8.6181640625q4.541015625-0.1953125,8.9599609375-0.4150390625t9.0087890625-0.5126953125l0,14.697265625z M166.11328125,116.943359375q0,1.416015625-0.7080078125,2.6611328125t-1.953125,2.197265625t-2.880859375,1.4892578125t-3.4912109375,0.537109375q-1.904296875,0-3.564453125-0.537109375t-2.880859375-1.4892578125t-1.9287109375-2.197265625t-0.7080078125-2.6611328125q0-1.46484375,0.7080078125-2.734375t1.9287109375-2.2216796875t2.880859375-1.513671875t3.564453125-0.5615234375q1.85546875,0,3.4912109375,0.5615234375t2.880859375,1.513671875t1.953125,2.2216796875t0.7080078125,2.734375z M192.822265625,46.337890625q-1.26953125,18.359375-1.6845703125,36.5478515625t-0.4150390625,36.2548828125l-15.234375,0q0.244140625-8.984375,0.341796875-17.822265625t0.09765625-17.7734375q0-9.375-0.09765625-18.603515625t-0.341796875-18.603515625l17.333984375,0z M254.8828125,69.3359375q-0.244140625,12.79296875-0.634765625,22.0703125t-0.78125,15.478515625q-0.439453125,7.2265625-0.87890625,12.158203125q-0.29296875,5.908203125-2.1728515625,10.791015625t-5.2978515625,8.3984375t-8.30078125,5.4443359375t-11.23046875,1.9287109375q-4.248046875,0-7.421875-0.5126953125t-5.5419921875-1.513671875t-4.052734375-2.4658203125t-2.9541015625-3.3935546875t-2.2216796875-4.3212890625t-1.8310546875-5.17578125l17.919921875-0.390625q0,0.68359375-0.048828125,1.2939453125t-0.048828125,1.1962890625q0,3.662109375,0.5859375,7.080078125q1.904296875,0.244140625,3.3203125,0.390625t2.783203125,0.146484375q1.85546875,0,3.80859375-0.244140625t4.6875-0.68359375q0.48828125-5.126953125,0.830078125-10.1806640625t0.5859375-10.1318359375q-2.05078125,0.87890625-3.9306640625,1.3427734375t-3.2958984375,0.7080078125q-1.66015625,0.244140625-3.173828125,0.29296875q-7.080078125,0-11.669921875-1.7822265625t-7.3974609375-5.029296875t-4.1015625-7.8125t-1.7822265625-10.0830078125t-0.48828125-11.8408203125t-0.146484375-13.1591796875l19.970703125,1.3671875q-0.390625,4.58984375-0.634765625,9.130859375t-0.244140625,9.08203125q0,4.6875,0.244140625,9.3017578125t0.634765625,9.2041015625q1.806640625,0.146484375,3.369140625,0.1708984375t3.125,0.0244140625q2.587890625,0,5.0048828125-0.0732421875t4.8095703125-0.3173828125q0.09765625-1.5625,0.09765625-3.1982421875l0-3.1982421875q0-8.154296875-0.4150390625-16.2109375t-1.3916015625-16.11328125z M317.96875,50q-11.083984375,17.3828125-20.5078125,35.3271484375t-17.3828125,36.3037109375l-18.505859375-2.490234375q10.888671875-17.529296875,20.2880859375-34.9609375t17.1142578125-35.05859375z M376.46484375,108.544921875q0,4.296875-2.197265625,7.1533203125t-5.76171875,4.58984375t-8.10546875,2.44140625t-9.228515625,0.7080078125q-2.587890625,0-5.5419921875-0.3173828125t-5.9326171875-1.123046875t-5.7861328125-2.1484375t-5.1025390625-3.3935546875t-3.9306640625-4.833984375t-2.2216796875-6.494140625l19.82421875-0.1953125l0.78125,8.49609375l15.185546875,0l1.123046875-9.814453125q-3.02734375-0.68359375-6.93359375-1.171875t-8.0078125-1.1962890625t-8.056640625-1.8310546875t-7.03125-3.076171875t-4.98046875-4.931640625t-1.904296875-7.373046875q0-4.736328125,2.294921875-7.9833984375t6.0302734375-5.224609375t8.4716796875-2.9052734375t9.619140625-1.07421875q2.587890625,0,5.5908203125,0.29296875t5.9814453125,1.0498046875t5.7373046875,2.0751953125t4.931640625,3.3447265625t3.564453125,4.8828125t1.5869140625,6.7138671875l-19.189453125,0.830078125l0-9.619140625l-16.50390625,0l0,12.98828125q3.173828125,0.68359375,7.080078125,1.0498046875t7.861328125,0.9521484375t7.6904296875,1.611328125t6.640625,2.9296875t4.6630859375,4.931640625t1.7578125,7.666015625z M435.25390625,88.916015625q0,4.19921875-0.4150390625,8.2275390625t-1.46484375,7.666015625t-2.880859375,6.787109375t-4.6142578125,5.5419921875t-6.689453125,3.9306640625t-9.130859375,1.9287109375q-13.427734375,0-20.166015625-6.787109375t-6.73828125-20.068359375l0-1.8310546875t0.048828125-3.7109375t0.1220703125-4.98046875t0.2685546875-5.6396484375t0.4638671875-5.6640625t0.7080078125-5.078125l17.08984375,0q-0.927734375,4.833984375-1.3671875,10.205078125t-0.439453125,10.986328125q0,5.17578125,0.4150390625,10.2783203125t1.3916015625,9.6923828125q1.806640625,0.244140625,3.5400390625,0.390625t3.4423828125,0.146484375q1.66015625,0,3.4423828125-0.146484375t3.4912109375-0.390625q0.537109375-4.58984375,0.8056640625-9.6435546875t0.2685546875-10.2294921875q0-5.6640625-0.2685546875-11.0595703125t-0.8056640625-10.2294921875l17.67578125,0q1.07421875,5.712890625,1.4404296875,10.791015625t0.3662109375,8.88671875z M496.2890625,94.43359375q0,6.494140625-0.68359375,13.232421875t-2.34375,13.4765625l-16.9921875,0q0.634765625-7.275390625,0.9765625-14.3798828125t0.341796875-14.3310546875l0-4.8583984375t-0.09765625-4.8583984375q-2.197265625-0.244140625-4.345703125-0.3173828125t-4.345703125-0.0732421875q-4.150390625,0-8.544921875,0.29296875q-0.146484375,4.00390625-0.2197265625,7.421875t-0.0732421875,6.787109375q0,2.490234375,0.048828125,5.0537109375t0.1708984375,5.4931640625t0.3173828125,6.3232421875t0.48828125,7.4462890625l-16.40625,0q0-5.859375-0.048828125-10.3515625t-0.146484375-8.2763671875t-0.2685546875-7.2265625t-0.4150390625-7.2265625t-0.537109375-8.251953125t-0.68359375-10.2783203125l18.505859375-1.123046875l-0.390625,6.93359375q2.783203125-1.953125,5.712890625-3.02734375t5.37109375-1.611328125q2.83203125-0.5859375,5.517578125-0.68359375q3.564453125,0,6.3720703125,0.9765625t4.931640625,2.7099609375t3.5888671875,4.0771484375t2.4169921875,5.0537109375t1.3671875,5.6884765625t0.4150390625,5.908203125z M562.40234375,94.43359375q0,6.103515625-1.6357421875,10.9619140625t-4.7119140625,8.2275390625t-7.51953125,5.17578125t-10.05859375,1.806640625q-3.22265625-0.09765625-6.34765625-0.87890625q-1.318359375-0.341796875-2.7587890625-0.8544921875t-2.880859375-1.26953125t-2.7587890625-1.7822265625t-2.44140625-2.392578125q0.146484375,8.349609375,0.390625,16.5283203125t0.634765625,15.7470703125l-18.505859375-1.171875q0.537109375-8.642578125,0.927734375-18.1640625t0.6591796875-19.2138671875t0.390625-19.2626953125t0.1220703125-18.359375l16.40625,0q-0.29296875,3.02734375-0.439453125,6.005859375q1.123046875-1.220703125,2.4658203125-2.1240234375t2.7587890625-1.5869140625t2.8564453125-1.171875t2.7587890625-0.78125q3.076171875-0.732421875,6.298828125-0.830078125q2.685546875,0,5.46875,0.7568359375t5.3955078125,2.2216796875t4.8828125,3.61328125t3.9794921875,4.98046875t2.685546875,6.2744140625t0.9765625,7.5439453125z M521.2890625,107.12890625q3.564453125,0.87890625,6.7138671875,1.2451171875t6.6162109375,0.3662109375q2.05078125,0,4.296875-0.146484375t4.8828125-0.390625q0.244140625-2.197265625,0.3173828125-4.345703125t0.0732421875-4.345703125q0-4.443359375-0.341796875-8.7646484375t-0.9765625-8.7158203125q-4.638671875-0.29296875-8.154296875-0.29296875q-1.708984375,0-3.271484375,0.0732421875t-3.1494140625,0.1953125t-3.22265625,0.2685546875t-3.4912109375,0.341796875q-0.29296875,10.498046875-0.29296875,21.38671875l0,3.125z M623.583984375,69.3359375q-0.244140625,12.79296875-0.634765625,22.0703125t-0.78125,15.478515625q-0.439453125,7.2265625-0.87890625,12.158203125q-0.29296875,5.908203125-2.1728515625,10.791015625t-5.2978515625,8.3984375t-8.30078125,5.4443359375t-11.23046875,1.9287109375q-4.248046875,0-7.421875-0.5126953125t-5.5419921875-1.513671875t-4.052734375-2.4658203125t-2.9541015625-3.3935546875t-2.2216796875-4.3212890625t-1.8310546875-5.17578125l17.919921875-0.390625q0,0.68359375-0.048828125,1.2939453125t-0.048828125,1.1962890625q0,3.662109375,0.5859375,7.080078125q1.904296875,0.244140625,3.3203125,0.390625t2.783203125,0.146484375q1.85546875,0,3.80859375-0.244140625t4.6875-0.68359375q0.48828125-5.126953125,0.830078125-10.1806640625t0.5859375-10.1318359375q-2.05078125,0.87890625-3.9306640625,1.3427734375t-3.2958984375,0.7080078125q-1.66015625,0.244140625-3.173828125,0.29296875q-7.080078125,0-11.669921875-1.7822265625t-7.3974609375-5.029296875t-4.1015625-7.8125t-1.7822265625-10.0830078125t-0.48828125-11.8408203125t-0.146484375-13.1591796875l19.970703125,1.3671875q-0.390625,4.58984375-0.634765625,9.130859375t-0.244140625,9.08203125q0,4.6875,0.244140625,9.3017578125t0.634765625,9.2041015625q1.806640625,0.146484375,3.369140625,0.1708984375t3.125,0.0244140625q2.587890625,0,5.0048828125-0.0732421875t4.8095703125-0.3173828125q0.09765625-1.5625,0.09765625-3.1982421875l0-3.1982421875q0-8.154296875-0.4150390625-16.2109375t-1.3916015625-16.11328125z M684.27734375,108.544921875q0,4.296875-2.197265625,7.1533203125t-5.76171875,4.58984375t-8.10546875,2.44140625t-9.228515625,0.7080078125q-2.587890625,0-5.5419921875-0.3173828125t-5.9326171875-1.123046875t-5.7861328125-2.1484375t-5.1025390625-3.3935546875t-3.9306640625-4.833984375t-2.2216796875-6.494140625l19.82421875-0.1953125l0.78125,8.49609375l15.185546875,0l1.123046875-9.814453125q-3.02734375-0.68359375-6.93359375-1.171875t-8.0078125-1.1962890625t-8.056640625-1.8310546875t-7.03125-3.076171875t-4.98046875-4.931640625t-1.904296875-7.373046875q0-4.736328125,2.294921875-7.9833984375t6.0302734375-5.224609375t8.4716796875-2.9052734375t9.619140625-1.07421875q2.587890625,0,5.5908203125,0.29296875t5.9814453125,1.0498046875t5.7373046875,2.0751953125t4.931640625,3.3447265625t3.564453125,4.8828125t1.5869140625,6.7138671875l-19.189453125,0.830078125l0-9.619140625l-16.50390625,0l0,12.98828125q3.173828125,0.68359375,7.080078125,1.0498046875t7.861328125,0.9521484375t7.6904296875,1.611328125t6.640625,2.9296875t4.6630859375,4.931640625t1.7578125,7.666015625z M749.072265625,94.43359375q0,6.103515625-1.6357421875,10.9619140625t-4.7119140625,8.2275390625t-7.51953125,5.17578125t-10.05859375,1.806640625q-3.22265625-0.09765625-6.34765625-0.87890625q-1.318359375-0.341796875-2.7587890625-0.8544921875t-2.880859375-1.26953125t-2.7587890625-1.7822265625t-2.44140625-2.392578125q0.146484375,8.349609375,0.390625,16.5283203125t0.634765625,15.7470703125l-18.505859375-1.171875q0.537109375-8.642578125,0.927734375-18.1640625t0.6591796875-19.2138671875t0.390625-19.2626953125t0.1220703125-18.359375l16.40625,0q-0.29296875,3.02734375-0.439453125,6.005859375q1.123046875-1.220703125,2.4658203125-2.1240234375t2.7587890625-1.5869140625t2.8564453125-1.171875t2.7587890625-0.78125q3.076171875-0.732421875,6.298828125-0.830078125q2.685546875,0,5.46875,0.7568359375t5.3955078125,2.2216796875t4.8828125,3.61328125t3.9794921875,4.98046875t2.685546875,6.2744140625t0.9765625,7.5439453125z M707.958984375,107.12890625q3.564453125,0.87890625,6.7138671875,1.2451171875t6.6162109375,0.3662109375q2.05078125,0,4.296875-0.146484375t4.8828125-0.390625q0.244140625-2.197265625,0.3173828125-4.345703125t0.0732421875-4.345703125q0-4.443359375-0.341796875-8.7646484375t-0.9765625-8.7158203125q-4.638671875-0.29296875-8.154296875-0.29296875q-1.708984375,0-3.271484375,0.0732421875t-3.1494140625,0.1953125t-3.22265625,0.2685546875t-3.4912109375,0.341796875q-0.29296875,10.498046875-0.29296875,21.38671875l0,3.125z M813.037109375,49.31640625q-1.123046875,17.48046875-1.611328125,35.4248046875t-0.48828125,35.6689453125l-16.259765625,0l0.29296875-5.46875q-2.34375,2.24609375-5.17578125,3.466796875t-5.37109375,1.7578125q-2.978515625,0.634765625-5.95703125,0.732421875q-5.56640625,0-10.0341796875-2.001953125t-7.568359375-5.615234375t-4.7607421875-8.69140625t-1.66015625-11.181640625q0-4.052734375,0.9765625-7.51953125t2.685546875-6.298828125t4.00390625-4.98046875t4.8828125-3.61328125t5.37109375-2.2216796875t5.517578125-0.7568359375q3.369140625,0.09765625,6.591796875,0.87890625q1.3671875,0.341796875,2.83203125,0.8544921875t2.9052734375,1.2451171875t2.783203125,1.708984375t2.4658203125,2.294921875q-0.146484375-6.787109375-0.341796875-13.4521484375t-0.439453125-13.3056640625z M789.0625,108.10546875l2.9052734375,0t3.1982421875-0.09765625q0.244140625-5.029296875,0.3173828125-10.1318359375t0.0732421875-10.2783203125l0-5.95703125q-3.662109375-0.390625-6.7626953125-0.6591796875t-6.6162109375-0.2685546875q-1.85546875,0-3.8330078125,0.0732421875t-4.3701171875,0.2197265625q-0.634765625,4.39453125-0.927734375,8.740234375t-0.29296875,8.7890625q0,2.197265625,0.0244140625,4.345703125t0.2685546875,4.345703125q2.44140625,0.244140625,4.5166015625,0.390625t4.00390625,0.2685546875t3.759765625,0.1708984375t3.7353515625,0.048828125z M880.2734375,119.04296875l-58.203125,0q-0.1953125-0.830078125-0.2197265625-1.708984375t-0.0244140625-1.708984375q0-2.783203125,0.4638671875-5.37109375t1.220703125-4.9072265625t1.7333984375-4.345703125t2.001953125-3.7353515625q2.34375-4.00390625,5.419921875-7.2265625q2.05078125-1.806640625,5.76171875-3.857421875q3.173828125-1.7578125,8.3740234375-4.0283203125t13.0615234375-4.8095703125q0.87890625-4.39453125,0.87890625-8.740234375q0-2.783203125-0.341796875-5.419921875t-0.927734375-5.2734375q-2.001953125-0.244140625-4.0283203125-0.3662109375t-4.0771484375-0.1220703125q-5.95703125,0-12.01171875,1.220703125q-0.29296875,2.34375-0.48828125,4.58984375t-0.1953125,4.58984375q0,3.759765625,0.5859375,7.421875l-19.287109375,0q-0.09765625-0.9765625-0.09765625-1.904296875l0-1.806640625q0-4.931640625,1.3671875-8.69140625t3.5888671875-6.54296875t5.078125-4.6875t5.8349609375-3.125q6.982421875-2.880859375,15.91796875-3.271484375q7.421875,0,12.7685546875,1.6845703125t8.7890625,4.6142578125t5.078125,6.884765625t1.6357421875,8.544921875q0,4.931640625-1.9287109375,8.8134765625t-5.078125,6.93359375t-7.12890625,5.3466796875t-8.056640625,4.052734375t-7.91015625,3.076171875t-6.6650390625,2.34375l-0.634765625,6.93359375l36.5234375,0z M935.546875,107.6171875q0.68359375-6.103515625,1.025390625-12.2314453125t0.341796875-12.3779296875q0-6.201171875-0.341796875-12.3291015625t-1.025390625-12.3779296875q-3.3203125-0.68359375-6.6650390625-0.9765625t-6.6650390625-0.29296875t-6.640625,0.29296875t-6.640625,0.9765625q-0.78125,5.322265625-1.1474609375,10.5712890625t-0.3662109375,10.5712890625q0,7.373046875,0.732421875,14.6240234375t2.099609375,14.5751953125q2.392578125,0.390625,4.8583984375,0.537109375t4.7119140625,0.146484375q4.00390625,0,7.861328125-0.439453125t7.861328125-1.26953125z M956.640625,85.009765625q-0.29296875,7.2265625-2.34375,12.6953125t-5.2001953125,9.47265625t-7.03125,6.6650390625t-7.8369140625,4.2724609375t-7.6416015625,2.2705078125t-6.3720703125,0.6591796875q-2.63671875,0-6.0791015625-0.5615234375t-7.03125-2.05078125t-7.0556640625-4.1259765625t-6.1767578125-6.8115234375t-4.3701171875-10.05859375t-1.66015625-13.8916015625q0-7.6171875,1.66015625-13.330078125t4.4189453125-9.86328125t6.3232421875-6.8603515625t7.3486328125-4.3212890625t7.470703125-2.2705078125t6.7626953125-0.7568359375q3.857421875,0,7.9345703125,0.8544921875t7.9345703125,2.734375t7.2998046875,4.8828125t6.0302734375,7.32421875t4.1015625,10.05859375t1.513671875,13.0126953125z M1023.73046875,119.04296875l-58.203125,0q-0.1953125-0.830078125-0.2197265625-1.708984375t-0.0244140625-1.708984375q0-2.783203125,0.4638671875-5.37109375t1.220703125-4.9072265625t1.7333984375-4.345703125t2.001953125-3.7353515625q2.34375-4.00390625,5.419921875-7.2265625q2.05078125-1.806640625,5.76171875-3.857421875q3.173828125-1.7578125,8.3740234375-4.0283203125t13.0615234375-4.8095703125q0.87890625-4.39453125,0.87890625-8.740234375q0-2.783203125-0.341796875-5.419921875t-0.927734375-5.2734375q-2.001953125-0.244140625-4.0283203125-0.3662109375t-4.0771484375-0.1220703125q-5.95703125,0-12.01171875,1.220703125q-0.29296875,2.34375-0.48828125,4.58984375t-0.1953125,4.58984375q0,3.759765625,0.5859375,7.421875l-19.287109375,0q-0.09765625-0.9765625-0.09765625-1.904296875l0-1.806640625q0-4.931640625,1.3671875-8.69140625t3.5888671875-6.54296875t5.078125-4.6875t5.8349609375-3.125q6.982421875-2.880859375,15.91796875-3.271484375q7.421875,0,12.7685546875,1.6845703125t8.7890625,4.6142578125t5.078125,6.884765625t1.6357421875,8.544921875q0,4.931640625-1.9287109375,8.8134765625t-5.078125,6.93359375t-7.12890625,5.3466796875t-8.056640625,4.052734375t-7.91015625,3.076171875t-6.6650390625,2.34375l-0.634765625,6.93359375l36.5234375,0z M1092.578125,100.09765625q0,3.3203125-1.3671875,6.1279296875t-3.7353515625,5.0537109375t-5.517578125,3.955078125t-6.7138671875,2.9296875t-7.3486328125,1.904296875t-7.3974609375,0.830078125q-3.564453125,0-7.1533203125-0.634765625t-6.884765625-1.85546875t-6.1767578125-3.0029296875t-5.0537109375-4.0771484375t-3.515625-5.126953125t-1.5380859375-6.103515625l18.408203125-1.26953125q0.244140625,3.02734375,0.9521484375,5.859375t2.0751953125,5.615234375q4.443359375,0,9.033203125-0.146484375t9.423828125-0.830078125q0.48828125-2.05078125,0.7080078125-4.052734375t0.2197265625-4.052734375q0-4.78515625-1.220703125-9.521484375q-3.759765625-0.68359375-7.51953125-1.025390625t-7.568359375-0.341796875q-1.513671875,0-3.02734375,0.048828125t-3.076171875,0.146484375l0.29296875-8.3984375q5.6640625-0.244140625,11.1328125-1.0009765625t10.791015625-2.1240234375q0.732421875-2.490234375,1.0498046875-4.931640625t0.3173828125-4.931640625q0-2.63671875-0.341796875-5.2001953125t-1.025390625-5.2001953125q-1.85546875-0.244140625-3.80859375-0.341796875t-3.90625-0.09765625q-2.392578125,0-4.78515625,0.1708984375t-4.833984375,0.4638671875q-0.87890625,4.19921875-0.87890625,8.3984375q0,1.806640625,0.1953125,3.61328125t0.5859375,3.662109375l-20.458984375,0.830078125q-0.244140625-1.26953125-0.341796875-2.4169921875t-0.09765625-2.2216796875q0-4.78515625,1.2939453125-8.4228515625t3.3935546875-6.3232421875t4.78515625-4.541015625t5.46875-3.076171875q6.591796875-2.83203125,14.990234375-3.22265625q5.6640625,0,10.0830078125,0.9765625t7.7880859375,2.685546875t5.712890625,3.9794921875t3.80859375,4.8828125t2.1240234375,5.3955078125t0.6591796875,5.46875q0,2.880859375-0.9521484375,5.37109375t-2.63671875,4.58984375t-3.955078125,3.8330078125t-4.8583984375,3.1005859375q2.24609375,0.9765625,3.955078125,2.099609375t3.0029296875,2.34375t2.197265625,2.44140625t1.4892578125,2.34375q1.416015625,2.685546875,1.7578125,5.37109375z"/></g></svg>
